<svg width="24.000000" height="24.000000" viewBox="0 0 24 24" fill="none" xmlns="http://www.w3.org/2000/svg" xmlns:xlink="http://www.w3.org/1999/xlink">
	<desc>
			Created with Pixso.
	</desc>
	<defs>
		<clipPath id="clip1_1574">
			<rect id="burger" width="24.000000" height="24.000000" fill="white" fill-opacity="0"/>
		</clipPath>
	</defs>
	<g clip-path="url(#clip1_1574)">
		<path id="Union" d="M3 7C3 6.44775 3.44769 6 4 6L20 6C20.5523 6 21 6.44775 21 7C21 7.55225 20.5523 8 20 8L4 8C3.44769 8 3 7.55225 3 7ZM20 13L4 13C3.44769 13 3 12.5522 3 12C3 11.4478 3.44769 11 4 11L20 11C20.5523 11 21 11.4478 21 12C21 12.5522 20.5523 13 20 13ZM20 18L4 18C3.44769 18 3 17.5522 3 17C3 16.4478 3.44769 16 4 16L20 16C20.5523 16 21 16.4478 21 17C21 17.5522 20.5523 18 20 18Z" clip-rule="evenodd" fill="#E1E3E6" fill-opacity="1.000000" fill-rule="evenodd"/>
	</g>
</svg>
